<?xml version="1.0" encoding="UTF-8"?>
<svg id="Layer_1" data-name="Layer 1" xmlns="http://www.w3.org/2000/svg" viewBox="0 0 1501.01 495.4">
  <defs>
    <style>
      .cls-1, .cls-2 {
        fill: #d79728;
      }

      .cls-3 {
        fill: #231f20;
        font-size: 54.8px;
        letter-spacing: 0em;
      }

      .cls-3, .cls-2, .cls-4 {
        font-family: Ebrima-Bold, Ebrima;
        font-weight: 700;
      }

      .cls-2 {
        font-size: 145.08px;
        letter-spacing: 0em;
      }

      .cls-4 {
        font-size: 148.87px;
        letter-spacing: -.03em;
      }
    </style>
  </defs>
  <path class="cls-1" d="m691.55,24.65s-14.15,80.94-168.71,122.44c0,0-20.49,4.28-29.43,4.54s-45.25,6.74-74.69,32.16c0,0-22.24-10.83-52.25-2.14,0,0,37.86-2.4,64.57,21.33,0,0,15.17,11.8,6.48,30.86,0,0-2.53-21.33-33.19-20.36,0,0,2.85,6.16,17.83,15.11s26.39,18.15,19.9,37.15c0,0-8.56-16.27-32.09-16.21s-40.26,16.47-43.11,36.24c0,0-.32,2.79-.39,6.9-.06,4.12-.02,140.33-.02,140.33l19.3-13.61s-6.18-17.29-6.27-44.91c0,0,6.27,25.98,12.23,34.49l19.32-12.75s-27.36-38.73-26.32-84.71c0,0,2.98,13.55,5.86,20.12,0,0,1.53-17.57,13.94-22.5,0,0,5.36-2.03,11.32-1.6,5.96.43,80.91,8.13,123.27-10.2,0,0-52.69,8.73-112.85-18.24,0,0,39.12,5.62,50.35,6.48s125.6,15.56,184.73-41.75c0,0-111.77,37.6-202.54,10.63,0,0,204.87,19.19,260.63-82.47,0,0-92.58,61.46-212.91,53.42,0,0,205.65-16.86,212.91-118.51,0,0-78.58,78.32-200.2,79.61,0,0,209.57-41.82,172.34-161.85Z"/>
  <path d="m352.97,432.99l-19.3-13.61s6.18-17.29,6.27-44.91c0,0-6.27,25.98-12.23,34.49l-19.32-12.75s27.36-38.73,26.32-84.71c0,0-2.98,13.55-5.86,20.12,0,0-1.53-17.57-13.94-22.5,0,0-5.36-2.03-11.32-1.6-5.96.43-80.91,8.13-123.27-10.2,0,0,52.69,8.73,112.85-18.24,0,0-39.12,5.62-50.35,6.48s-125.6,15.56-184.73-41.75c0,0,111.77,37.6,202.54,10.63,0,0-204.87,19.19-260.63-82.47,0,0,92.58,61.46,212.91,53.42,0,0-205.65-16.86-212.91-118.51,0,0,78.58,78.32,200.2,79.61,0,0-209.57-41.82-172.34-161.85,0,0,14.15,80.94,168.71,122.44,0,0,20.49,4.28,29.43,4.54,0,0,35.95,1.17,69.84,28.14,33.89,26.97,58.41,66.91,57.12,119.81-1.28,52.9,0,133.42,0,133.42Z"/>
  <path d="m579.85,304.51c-25.29,97.98-114.43,170.58-220.2,170.58s-193.31-71.3-219.51-167.95l-22.65-7.02c3.24,15.02,7.88,29.72,13.93,44,12.47,29.5,30.33,55.99,53.08,78.73,22.74,22.75,49.23,40.6,78.73,53.08,30.54,12.92,62.98,19.47,96.42,19.47s65.88-6.55,96.42-19.47c29.5-12.48,55.99-30.33,78.73-53.08s40.6-49.24,53.08-78.73c6.11-14.45,10.8-29.32,14.04-44.52l-22.07,4.92ZM359.65,20.31c77.02,0,145.22,38.48,186.36,97.24l20.23-6.59c-9.11-13.75-19.61-26.59-31.44-38.42-22.75-22.74-49.24-40.6-78.73-53.08C425.53,6.55,393.08,0,359.65,0s-65.87,6.55-96.42,19.47c-29.5,12.48-55.99,30.34-78.73,53.08-11.43,11.43-21.63,23.81-30.53,37.04l24.72.58c41.57-54.57,107.22-89.85,180.96-89.85Z"/>
  <text class="cls-4" transform="translate(775.07 202.97)"><tspan x="0" y="0">COMFORT </tspan></text>
  <text class="cls-2" transform="translate(780.43 345.7)"><tspan x="0" y="0">PREMIUM</tspan></text>
  <text class="cls-3" transform="translate(967.56 432.99)"><tspan x="0" y="0">SINCE 2018</tspan></text>
</svg>